# xmcd
#
# Track frame offsets: 
#        150
#        38806
#        58917
#        91572
#        118159
#        138086
#
# Disc length: 2400 seconds
#
# Revision: 2
# Processed by: cddbd v1.5.2PL0 Copyright (c) Steve Scherf et al.
# Submitted via: ExactAudioCopy v1.0b3
#
DISCID=48095e06
DTITLE=MUMPS Mangelsdorff, Martin, Phillips Surman - A Matter Of Taste
DYEAR=1977
DGENRE=Contemporary Jazz
TTITLE0=MUMPS - A Matter Of Taste
TTITLE1=MUMPS - Old Love Never Rusts
TTITLE2=MUMPS - Amber - Electric Waltz
TTITLE3=MUMPS - Sparrow Knows
TTITLE4=MUMPS - The Strange Tale Of Mr. Misster
TTITLE5=MUMPS - But The Accordion Stays
EXTD=YEAR: 1977
EXTT0=
EXTT1=
EXTT2=
EXTT3=
EXTT4=
EXTT5=
PLAYORDER=
